<?xml version="1.0" encoding="utf-8"?>
<!-- Generator: Adobe Illustrator 21.1.0, SVG Export Plug-In . SVG Version: 6.00 Build 0)  -->
<svg version="1.1" id="Layer_1" xmlns="http://www.w3.org/2000/svg" xmlns:xlink="http://www.w3.org/1999/xlink" x="0px" y="0px"
	 viewBox="0 0 30.4 29.8" style="enable-background:new 0 0 30.4 29.8;" xml:space="preserve">
<style type="text/css">
	.st0{fill:none;stroke:#493728;stroke-width:1.1339;stroke-miterlimit:10;}
	.st1{fill:#493728;}
</style>
<g id="masala">
	<g>
		<line class="st0" x1="0" y1="29.3" x2="30.4" y2="29.3"/>
		<polyline class="st0" points="7.7,29.3 11.5,18 15.2,6.7 19,18 22.7,29.3 		"/>
		<line class="st0" x1="10.8" y1="18.9" x2="19.7" y2="18.9"/>
		<circle class="st1" cx="15.2" cy="4.7" r="2.2"/>
		<path class="st0" d="M8.2,12.5c-0.9-1.4-1.5-3-1.5-4.8c0-2,0.7-3.8,1.8-5.3"/>
		<path class="st0" d="M21.9,2.4c1.1,1.4,1.8,3.3,1.8,5.3c0,1.7-0.5,3.3-1.4,4.7"/>
		<path class="st0" d="M5.2,14.5c-1.3-1.9-2.1-4.2-2.1-6.7c0-2.8,1-5.4,2.6-7.5"/>
		<path class="st0" d="M24.7,0.4c1.6,2.1,2.6,4.6,2.6,7.5c0,2.4-0.7,4.7-2,6.6"/>
	</g>
</g>
</svg>
