<?xml version="1.0" encoding="utf-8"?>
<!-- Generator: Adobe Illustrator 21.1.0, SVG Export Plug-In . SVG Version: 6.00 Build 0)  -->
<svg version="1.1" xmlns="http://www.w3.org/2000/svg" xmlns:xlink="http://www.w3.org/1999/xlink" x="0px" y="0px"
	 viewBox="0 0 13.6 13.6" style="enable-background:new 0 0 13.6 13.6;" xml:space="preserve">
<style type="text/css">
	.st0{fill:#493728;}
	.st1{fill:#8C8934;}
	.st2{fill:#F5C400;}
	.st3{fill:#8D6A29;}
	.st4{fill:#F5C400;stroke:#F5C400;stroke-width:1.6045;stroke-miterlimit:10;}
	.st5{opacity:0.8;fill:#FFFFFF;}
	.st6{fill:none;stroke:#F5C400;stroke-width:0.8022;stroke-miterlimit:10;}
	.st7{fill:#FFFFFF;}
</style>
<g id="back">
</g>
<g id="Grid">
	<g>
		<path class="st0" d="M-301,217.5l4.5-7.6l-4.2-6.9h2.1l3.1,5.6l3-5.6h2l-4.1,7l4.7,7.5h-2l-3.6-6.2l-3.4,6.2H-301z M-309,202.5
			l6.7,15.1h-1.9l-1.9-4.3h-5.7l-1.9,4.3h-1.9L-309,202.5z M-309,206.3L-309,206.3l-2.3,5.4h4.7L-309,206.3z M-325.1,217.6l-4.5-9.4
			l-1.8,9.3h-1.7l3-14.6l5.1,11l5.1-11l3,14.6h-1.7l-1.9-9.3L-325.1,217.6z M-337.9,203.1h1.7v14.5h-1.7V203.1z M-349.7,217.5v-14.5
			h3.4c1,0,1.7,0.1,2.2,0.2c0.5,0.1,0.9,0.3,1.2,0.6c0.4,0.3,0.8,0.8,1,1.4c0.2,0.6,0.4,1.2,0.4,1.9c0,1.2-0.3,2.1-1,2.7
			c-0.7,0.6-1.7,0.9-2.9,0.9h-0.3l5.6,6.8h-2.2l-5.3-6.8h-0.2v6.8H-349.7z M-348,204.5L-348,204.5v4.9h1.3c1.4,0,2.3-0.2,2.7-0.5
			c0.5-0.3,0.7-1,0.7-1.8c0-0.9-0.2-1.6-0.7-2c-0.5-0.4-1.4-0.6-2.7-0.6H-348z M-357.8,217.5v-12.8h-4.1v-1.7h10v1.7h-4.1v12.8
			H-357.8z M-375.5,203.1h1.8v9c0,1.5,0.3,2.6,0.9,3.3c0.6,0.7,1.6,1,3,1c1.3,0,2.3-0.3,3-1c0.6-0.7,0.9-1.8,0.9-3.3v-9h1.8v9
			c0,2-0.5,3.5-1.4,4.4c-0.9,1-2.4,1.5-4.3,1.5c-1.9,0-3.3-0.5-4.3-1.5c-0.9-1-1.4-2.5-1.4-4.4V203.1z M-391.2,217.5v-14.6
			l10.7,10.6v-10.5h1.7v14.6l-10.7-10.5v10.4H-391.2z"/>
		<g>
			<path class="st1" d="M-359.1,190.7c0.9-0.4,1.9,0.2,1.9,0.2s0.6,1,0.3,1.9c-0.3,0.8-1.2,0.8-1.2,0.8h-1.7v-1.7
				C-359.8,191.9-359.9,191.1-359.1,190.7 M-354.2,190.7c-0.9-0.4-1.9,0.2-1.9,0.2s-0.6,1-0.3,1.9c0.3,0.8,1.2,0.8,1.2,0.8h1.7v-1.7
				C-353.5,191.9-353.5,191.1-354.2,190.7z M-359.1,190.2c0.9,0.4,1.9-0.2,1.9-0.2s0.6-1,0.3-1.9c-0.3-0.8-1.2-0.8-1.2-0.8h-1.7v1.7
				C-359.8,189-359.9,189.9-359.1,190.2z M-354.2,190.2c-0.9,0.4-1.9-0.2-1.9-0.2s-0.6-1-0.3-1.9c0.3-0.8,1.2-0.8,1.2-0.8h1.7v1.7
				C-353.5,189-353.5,189.9-354.2,190.2z M-365.8,190.7c0.9-0.4,1.9,0.2,1.9,0.2s0.6,1,0.3,1.9c-0.3,0.8-1.2,0.8-1.2,0.8h-1.7h0
				v-1.7C-366.5,191.9-366.6,191.1-365.8,190.7z M-361,190.7c-0.9-0.4-1.9,0.2-1.9,0.2s-0.6,1-0.3,1.9c0.3,0.8,1.2,0.8,1.2,0.8h1.7
				h0v-1.7C-360.2,191.9-360.2,191.1-361,190.7z M-365.8,190.2c0.9,0.4,1.9-0.2,1.9-0.2s0.6-1,0.3-1.9c-0.3-0.8-1.2-0.8-1.2-0.8
				h-1.7h0v1.7C-366.5,189-366.6,189.9-365.8,190.2z M-361,190.2c-0.9,0.4-1.9-0.2-1.9-0.2s-0.6-1-0.3-1.9c0.3-0.8,1.2-0.8,1.2-0.8
				h1.7h0v1.7C-360.2,189-360.2,189.9-361,190.2z M-372.5,190.7c0.9-0.4,1.9,0.2,1.9,0.2s0.6,1,0.3,1.9c-0.3,0.8-1.2,0.8-1.2,0.8
				h-1.7l0-1.7C-373.2,191.9-373.3,191.1-372.5,190.7z M-367.6,190.7c-0.9-0.4-1.9,0.2-1.9,0.2s-0.6,1-0.3,1.9
				c0.3,0.8,1.2,0.8,1.2,0.8h1.7v-1.7C-366.9,191.9-366.9,191.1-367.6,190.7z M-372.5,190.2c0.9,0.4,1.9-0.2,1.9-0.2s0.6-1,0.3-1.9
				c-0.3-0.8-1.2-0.8-1.2-0.8h-1.7l0,1.7C-373.2,189-373.3,189.9-372.5,190.2z M-367.6,190.2c-0.9,0.4-1.9-0.2-1.9-0.2
				s-0.6-1-0.3-1.9c0.3-0.8,1.2-0.8,1.2-0.8h1.7v1.7C-366.9,189-366.9,189.9-367.6,190.2z M-359.1,184c0.9-0.4,1.9,0.2,1.9,0.2
				s0.6,1,0.3,1.9c-0.3,0.8-1.2,0.8-1.2,0.8h-1.7v-1.7C-359.8,185.2-359.9,184.4-359.1,184z M-354.2,184c-0.9-0.4-1.9,0.2-1.9,0.2
				s-0.6,1-0.3,1.9c0.3,0.8,1.2,0.8,1.2,0.8h1.7v-1.7C-353.5,185.2-353.5,184.4-354.2,184z M-359.1,183.5c0.9,0.4,1.9-0.2,1.9-0.2
				s0.6-1,0.3-1.9c-0.3-0.8-1.2-0.8-1.2-0.8h-1.7v1.7C-359.8,182.3-359.9,183.2-359.1,183.5z M-354.2,183.5
				c-0.9,0.4-1.9-0.2-1.9-0.2s-0.6-1-0.3-1.9c0.3-0.8,1.2-0.8,1.2-0.8h1.7v1.7C-353.5,182.3-353.5,183.2-354.2,183.5z M-365.8,184
				c0.9-0.4,1.9,0.2,1.9,0.2s0.6,1,0.3,1.9c-0.3,0.8-1.2,0.8-1.2,0.8h-1.7h0v-1.7C-366.5,185.2-366.6,184.4-365.8,184z M-361,184
				c-0.9-0.4-1.9,0.2-1.9,0.2s-0.6,1-0.3,1.9c0.3,0.8,1.2,0.8,1.2,0.8h1.7h0v-1.7C-360.2,185.2-360.2,184.4-361,184z M-365.8,183.5
				c0.9,0.4,1.9-0.2,1.9-0.2s0.6-1,0.3-1.9c-0.3-0.8-1.2-0.8-1.2-0.8h-1.7h0v1.7C-366.5,182.3-366.6,183.2-365.8,183.5z M-361,183.5
				c-0.9,0.4-1.9-0.2-1.9-0.2s-0.6-1-0.3-1.9c0.3-0.8,1.2-0.8,1.2-0.8h1.7h0v1.7C-360.2,182.3-360.2,183.2-361,183.5z M-372.5,184
				c0.9-0.4,1.9,0.2,1.9,0.2s0.6,1,0.3,1.9c-0.3,0.8-1.2,0.8-1.2,0.8h-1.7l0-1.7C-373.2,185.2-373.3,184.4-372.5,184z M-367.6,184
				c-0.9-0.4-1.9,0.2-1.9,0.2s-0.6,1-0.3,1.9c0.3,0.8,1.2,0.8,1.2,0.8h1.7v-1.7C-366.9,185.2-366.9,184.4-367.6,184z M-372.5,183.5
				c0.9,0.4,1.9-0.2,1.9-0.2s0.6-1,0.3-1.9c-0.3-0.8-1.2-0.8-1.2-0.8h-1.7l0,1.7C-373.2,182.3-373.3,183.2-372.5,183.5z
				 M-367.6,183.5c-0.9,0.4-1.9-0.2-1.9-0.2s-0.6-1-0.3-1.9c0.3-0.8,1.2-0.8,1.2-0.8h1.7v1.7C-366.9,182.3-366.9,183.2-367.6,183.5z
				 M-359.1,177.3c0.9-0.4,1.9,0.2,1.9,0.2s0.6,1,0.3,1.9c-0.3,0.8-1.2,0.8-1.2,0.8h-1.7v-1.7C-359.8,178.5-359.9,177.7-359.1,177.3
				z M-354.2,177.3c-0.9-0.4-1.9,0.2-1.9,0.2s-0.6,1-0.3,1.9c0.3,0.8,1.2,0.8,1.2,0.8h1.7v-1.7
				C-353.5,178.5-353.5,177.7-354.2,177.3z M-359.1,176.8c0.9,0.4,1.9-0.2,1.9-0.2s0.6-1,0.3-1.9c-0.3-0.8-1.2-0.8-1.2-0.8h-1.7v1.7
				C-359.8,175.6-359.9,176.4-359.1,176.8z M-354.2,176.8c-0.9,0.4-1.9-0.2-1.9-0.2s-0.6-1-0.3-1.9c0.3-0.8,1.2-0.8,1.2-0.8h1.7v1.7
				C-353.5,175.6-353.5,176.4-354.2,176.8z M-365.8,177.3c0.9-0.4,1.9,0.2,1.9,0.2s0.6,1,0.3,1.9c-0.3,0.8-1.2,0.8-1.2,0.8h-1.7h0
				v-1.7C-366.5,178.5-366.6,177.7-365.8,177.3z M-361,177.3c-0.9-0.4-1.9,0.2-1.9,0.2s-0.6,1-0.3,1.9c0.3,0.8,1.2,0.8,1.2,0.8h1.7
				h0v-1.7C-360.2,178.5-360.2,177.7-361,177.3z M-365.8,176.8c0.9,0.4,1.9-0.2,1.9-0.2s0.6-1,0.3-1.9c-0.3-0.8-1.2-0.8-1.2-0.8
				h-1.7h0v1.7C-366.5,175.6-366.6,176.4-365.8,176.8z M-361,176.8c-0.9,0.4-1.9-0.2-1.9-0.2s-0.6-1-0.3-1.9
				c0.3-0.8,1.2-0.8,1.2-0.8h1.7h0v1.7C-360.2,175.6-360.2,176.4-361,176.8z M-372.5,177.3c0.9-0.4,1.9,0.2,1.9,0.2s0.6,1,0.3,1.9
				c-0.3,0.8-1.2,0.8-1.2,0.8h-1.7l0-1.7C-373.2,178.5-373.3,177.7-372.5,177.3z M-367.6,177.3c-0.9-0.4-1.9,0.2-1.9,0.2
				s-0.6,1-0.3,1.9c0.3,0.8,1.2,0.8,1.2,0.8h1.7v-1.7C-366.9,178.5-366.9,177.7-367.6,177.3z M-372.5,176.8c0.9,0.4,1.9-0.2,1.9-0.2
				s0.6-1,0.3-1.9c-0.3-0.8-1.2-0.8-1.2-0.8h-1.7l0,1.7C-373.2,175.6-373.3,176.4-372.5,176.8z M-367.6,176.8
				c-0.9,0.4-1.9-0.2-1.9-0.2s-0.6-1-0.3-1.9c0.3-0.8,1.2-0.8,1.2-0.8h1.7v1.7C-366.9,175.6-366.9,176.4-367.6,176.8z"/>
			<path class="st2" d="M-332.8,189.3l2.1,3l0,0v-3H-332.8z M-350.5,193.6h2.1l-2.1-3l0,0V193.6z M-335,193.6l2.1-3l2.1,3H-335z
				 M-339.4,193.6l2.1-3l2.1,3H-339.4z M-343.7,193.6l2.1-3l2.1,3H-343.7z M-348.1,193.6l2.1-3l2.1,3H-348.1z M-337.2,189.3l2.1,3
				l2.1-3H-337.2z M-341.5,189.3l2.1,3l2.1-3H-341.5z M-345.9,189.3l2.1,3l2.1-3H-345.9z M-350.3,189.3l2.1,3l2.1-3H-350.3z
				 M-332.8,184.2l2.1,3l0,0v-3H-332.8z M-350.5,188.5h2.1l-2.1-3l0,0V188.5z M-335,188.5l2.1-3l2.1,3H-335z M-339.4,188.5l2.1-3
				l2.1,3H-339.4z M-343.7,188.5l2.1-3l2.1,3H-343.7z M-348.1,188.5l2.1-3l2.1,3H-348.1z M-337.2,184.2l2.1,3l2.1-3H-337.2z
				 M-341.5,184.2l2.1,3l2.1-3H-341.5z M-345.9,184.2l2.1,3l2.1-3H-345.9z M-350.3,184.2l2.1,3l2.1-3H-350.3z M-332.8,179l2.1,3l0,0
				v-3H-332.8z M-350.5,183.4h2.1l-2.1-3l0,0V183.4z M-335,183.4l2.1-3l2.1,3H-335z M-339.4,183.4l2.1-3l2.1,3H-339.4z
				 M-343.7,183.4l2.1-3l2.1,3H-343.7z M-348.1,183.4l2.1-3l2.1,3H-348.1z M-337.2,179l2.1,3l2.1-3H-337.2z M-341.5,179l2.1,3l2.1-3
				H-341.5z M-345.9,179l2.1,3l2.1-3H-345.9z M-350.3,179l2.1,3l2.1-3H-350.3z M-332.8,173.9l2.1,3l0,0v-3H-332.8z M-350.5,178.2
				h2.1l-2.1-3l0,0V178.2z M-335,178.2l2.1-3l2.1,3H-335z M-339.4,178.2l2.1-3l2.1,3H-339.4z M-343.7,178.2l2.1-3l2.1,3H-343.7z
				 M-348.1,178.2l2.1-3l2.1,3H-348.1z M-337.2,173.9l2.1,3l2.1-3H-337.2z M-341.5,173.9l2.1,3l2.1-3H-341.5z M-345.9,173.9l2.1,3
				l2.1-3H-345.9z M-350.3,173.9l2.1,3l2.1-3H-350.3z"/>
			<path class="st3" d="M-307.9,193.6h-1V191h1V193.6z M-310,193.6h-1V191h1V193.6z M-311,188.9h3.1v1h-3.1V188.9z M-311,186.8h3.1
				v1h-3.1V186.8z M-307.9,185.6h-1v-3.7h1V185.6z M-310,185.6h-1v-3.7h1V185.6z M-311,179.7h3.1v1h-3.1V179.7z M-311,177.6h3.1v1
				h-3.1V177.6z M-307.9,176.5h-1v-2.6h1V176.5z M-310,176.5h-1v-2.6h1V176.5z M-312.1,193.6h-1V191h1V193.6z M-314.2,193.6h-1V191
				h1V193.6z M-315.2,188.9h3.1v1h-3.1V188.9z M-315.2,186.8h3.1v1h-3.1V186.8z M-312.1,185.6h-1v-3.7h1V185.6z M-314.2,185.6h-1
				v-3.7h1V185.6z M-315.2,179.7h3.1v1h-3.1V179.7z M-315.2,177.6h3.1v1h-3.1V177.6z M-312.1,176.5h-1v-2.6h1V176.5z M-314.2,176.5
				h-1v-2.6h1V176.5z M-316.2,193.6h-1V191h1V193.6z M-318.3,193.6h-1V191h1V193.6z M-319.3,188.9h3.1v1h-3.1V188.9z M-319.3,186.8
				h3.1v1h-3.1V186.8z M-316.2,185.6h-1v-3.7h1V185.6z M-318.3,185.6h-1v-3.7h1V185.6z M-319.3,179.7h3.1v1h-3.1V179.7z
				 M-319.3,177.6h3.1v1h-3.1V177.6z M-316.2,176.5h-1v-2.6h1V176.5z M-318.3,176.5h-1v-2.6h1V176.5z M-320.4,193.6h-1V191h1V193.6z
				 M-322.5,193.6h-1V191h1V193.6z M-323.5,188.9h3.1v1h-3.1V188.9z M-323.5,186.8h3.1v1h-3.1V186.8z M-320.4,185.6h-1v-3.7h1V185.6
				z M-322.5,185.6h-1v-3.7h1V185.6z M-323.5,179.7h3.1v1h-3.1V179.7z M-323.5,177.6h3.1v1h-3.1V177.6z M-320.4,176.5h-1v-2.6h1
				V176.5z M-322.5,176.5h-1v-2.6h1V176.5z M-324.5,193.6h-1V191h1V193.6z M-326.6,193.6h-1V191h1V193.6z M-327.6,188.9h3.1v1h-3.1
				V188.9z M-327.6,186.8h3.1v1h-3.1V186.8z M-324.5,185.6h-1v-3.7h1V185.6z M-326.6,185.6h-1v-3.7h1V185.6z M-327.6,179.7h3.1v1
				h-3.1V179.7z M-327.6,177.6h3.1v1h-3.1V177.6z M-324.5,176.5h-1v-2.6h1V176.5z M-326.6,176.5h-1v-2.6h1V176.5z"/>
		</g>
	</g>
	<g>
		<line class="st4" x1="-47.1" y1="431.5" x2="-47.1" y2="483.6"/>
		<text transform="matrix(1 0 0 1 -129.3277 479.9514)" class="st7" style="font-family:'GLGordeziani-Medium'; font-size:18px;">სრულად  ნახვა</text>
		<text transform="matrix(1 0 0 1 -380.2199 454.5721)" class="st7" style="font-family:'GLGordeziani-Medium'; font-size:25px;">ცხოველის საუკეთესო საკვები საქართველოში</text>
	</g>
	<g>
		<rect x="-38.6" y="256.1" class="st5" width="51.8" height="67.6"/>
		<g>
			<path class="st0" d="M-18.1,298.3c-0.3-0.1-0.6-0.1-0.9-0.2c-1-0.3-2-0.8-2.9-1.4c-3.1-2-5.6-4.6-7.6-7.8c-0.5-0.9-1-1.8-1.2-2.9
				c-0.1-0.6-0.1-1.2,0.2-1.7c0.4-0.8,1-1.6,1.7-2.2c1.5,1.2,2.8,2.5,3.9,3.9c-0.5,0.5-1,1-1.5,1.5c2.1,2.1,4.2,4.2,6.3,6.3
				c0.5-0.5,1-1,1.5-1.6c1.5,1.2,2.8,2.5,3.9,3.9c-0.8,0.8-1.6,1.5-2.7,1.9c-0.1,0-0.3,0.1-0.4,0.1
				C-17.7,298.3-17.9,298.3-18.1,298.3z"/>
		</g>
		<g>
			<g>
				<path class="st0" d="M-17,275.1c-2.5,0-5,0-7.5,0c0-2,0-4,0-6c-1.2,0-2.3,0-3.5,0c0,2,0,3.9,0,5.9c-0.3,0-0.6,0-1,0
					c0-2.5,0-5,0-7.5c-0.3,0-0.6,0-1,0c0-0.5,0-1,0-1.4c4.6,0,9.3,0,13.9,0c0,0.5,0,0.9,0,1.4c-0.3,0-0.6,0-1,0
					C-17,270.1-17,272.6-17,275.1z M-18,269.1c-1.8,0-3.6,0-5.5,0c0,1.2,0,2.3,0,3.5c1.8,0,3.6,0,5.5,0C-18,271.5-18,270.3-18,269.1
					z"/>
			</g>
			<polygon class="st0" points="-29.9,265.1 -27.9,260.6 -18.1,260.6 -16,265.1 			"/>
		</g>
		<g>
			<path class="st0" d="M-28.9,316.4c1.9-1.5,3.7-3,5.6-4.5c0.4,0.3,0.7,0.6,1.1,0.9c0.3,0.2,0.6,0.3,0.9,0.3c0.3,0,0.5-0.1,0.7-0.3
				c0.3-0.3,0.7-0.6,1.1-0.9c1.9,1.5,3.7,3,5.6,4.5c-0.1,0-0.1,0.1-0.1,0.1c0,0-0.1,0-0.1,0c-4.9,0-9.7,0-14.6,0
				C-28.8,316.5-28.9,316.5-28.9,316.4C-28.9,316.5-28.9,316.4-28.9,316.4z"/>
			<path class="st0" d="M-28.9,307.3c1.7,1.4,3.4,2.8,5.1,4.2c0,0-0.1,0-0.1,0.1c-1.7,1.3-3.3,2.7-5,4c0,0-0.1,0-0.1,0
				C-28.9,312.8-28.9,310-28.9,307.3z"/>
			<path class="st0" d="M-28.9,306.5c5,0,10,0,15,0c-0.1,0.1-0.1,0.1-0.1,0.1c-2.3,1.9-4.6,3.8-7,5.8c-0.3,0.2-0.6,0.2-0.8,0
				C-24.1,310.4-26.5,308.5-28.9,306.5C-28.8,306.5-28.9,306.5-28.9,306.5z"/>
			<path class="st0" d="M-13.9,315.6c-1.7-1.4-3.4-2.7-5.1-4.1c1.7-1.4,3.4-2.8,5.1-4.2C-13.9,310.1-13.9,312.8-13.9,315.6z"/>
		</g>
		<line class="st6" x1="-38.6" y1="256" x2="-38.6" y2="323.7"/>
	</g>
	<rect x="-36.6" y="145.9" class="st7" width="34.4" height="84"/>
	<g>
		<rect x="-53.8" y="173.9" class="st2" width="17.2" height="2.1"/>
		<rect x="-53.8" y="177.7" class="st2" width="17.2" height="2.1"/>
		<rect x="-53.8" y="181.5" class="st2" width="17.2" height="2.1"/>
	</g>
	<g>
		<rect x="-79.1" y="52.9" class="st2" width="17.2" height="2.1"/>
		<rect x="-79.1" y="56.7" class="st2" width="17.2" height="2.1"/>
		<rect x="-79.1" y="60.5" class="st2" width="17.2" height="2.1"/>
	</g>
	<rect x="-446.6" y="3598.9" class="st2" width="459.8" height="741.7"/>
	<g>
		<g>
			
				<rect x="-1.8" y="5.8" transform="matrix(-0.7071 -0.7071 0.7071 -0.7071 6.8111 16.4435)" class="st7" width="17.2" height="2.1"/>
		</g>
		<g>
			
				<rect x="-1.8" y="5.8" transform="matrix(0.7071 -0.7071 0.7071 0.7071 -2.8213 6.8111)" class="st7" width="17.2" height="2.1"/>
		</g>
	</g>
</g>
</svg>
