<?xml version="1.0" encoding="utf-8"?>
<!-- Generator: Adobe Illustrator 21.1.0, SVG Export Plug-In . SVG Version: 6.00 Build 0)  -->
<svg version="1.1" id="Layer_1" xmlns="http://www.w3.org/2000/svg" xmlns:xlink="http://www.w3.org/1999/xlink" x="0px" y="0px"
	 viewBox="0 0 43.4 44.8" style="enable-background:new 0 0 43.4 44.8;" xml:space="preserve">
<style type="text/css">
	.st0{fill:#493728;}
</style>
<g>
	<path class="st0" d="M2.6,44.8c-1-0.2-1.8-0.7-2.2-1.6c-0.2-0.5-0.3-1-0.4-1.5c0-4.3,0-8.5,0-12.8c0-0.1,0-0.1,0-0.2c2,0,4,0,6,0
		c0,3.4,0,6.7,0,10.2c10.5,0,20.9,0,31.3,0c0-3.4,0-6.8,0-10.2c2,0,4,0,6,0c0,0.2,0,0.3,0,0.5c0,4,0,8.1,0,12.1
		c0,1.8-0.7,3.2-2.6,3.6C28,44.8,15.3,44.8,2.6,44.8z"/>
	<path class="st0" d="M17.5,15.9c0-0.2,0-0.3,0-0.5c0-4.8,0-9.7,0-14.5c0-0.7,0.2-0.9,0.9-0.9c1.4,0,2.8,0,4.2,0c0.8,0,1.6,0,2.5,0
		C25.8,0,26,0.2,26,0.9c0,4.7,0,9.4,0,14c0,0.2,0,0.4,0,0.6c0.3,0,0.5,0,0.7,0c1.2,0,2.5,0,3.7,0c0.3,0,0.8-0.1,0.9,0.3
		c0.1,0.3-0.1,0.6-0.3,0.9c-2.2,2.8-4.3,5.7-6.5,8.5c-0.5,0.7-1,1.3-1.6,1.9c-0.8,0.9-1.3,0.9-2,0c-2.4-3-4.9-5.9-7.3-8.9
		c-0.4-0.5-0.8-1-1.2-1.5c-0.2-0.2-0.2-0.5-0.3-0.8c0.3-0.1,0.5-0.2,0.8-0.2c1.4,0,2.8,0,4.2,0C17.1,15.9,17.3,15.9,17.5,15.9z"/>
</g>
</svg>
