<?xml version="1.0" encoding="utf-8"?>
<!-- Generator: Adobe Illustrator 21.1.0, SVG Export Plug-In . SVG Version: 6.00 Build 0)  -->
<svg version="1.1" id="Layer_1" xmlns="http://www.w3.org/2000/svg" xmlns:xlink="http://www.w3.org/1999/xlink" x="0px" y="0px"
	 viewBox="0 0 47.5 67.7" style="enable-background:new 0 0 47.5 67.7;" xml:space="preserve">
<style type="text/css">
	.st0{fill:#493728;}
	.st1{fill:none;}
</style>
<g>
	<path class="st0" d="M4.5,67.7c-0.7-0.4-1.6-0.8-2.2-1.3c-1.9-1.6-2.6-3.7-2.2-6.1c0.2-0.9,0.7-1.7,1.1-2.5
		c4.5-8.8,9-17.6,13.6-26.4c0.1-0.2,0.2-0.5,0.2-0.8c0-5.3,0-10.7,0-16c0-0.1,0-0.3,0-0.4c-0.4,0-0.8,0-1.1-0.1
		c-1.8-0.1-3.1-1.5-3.1-3.2c0-1.8,1.4-3.2,3.2-3.2c5.7,0,11.4,0,17.1,0c1.8,0,3.2,1.4,3.3,3.1c0,1.7-1.3,3.2-3.1,3.3
		c-0.4,0-0.8,0-1.3,0c0,0.3,0,0.6,0,0.8c0,5.2,0,10.3,0,15.5c0,0.4,0.1,0.8,0.3,1.2c5.5,9.3,11.1,18.6,16.6,28
		c0.6,1.1,0.5,2.3,0.3,3.4c-0.5,2.2-1.8,3.7-3.8,4.6c-0.2,0.1-0.3,0.2-0.5,0.3C30.1,67.7,17.3,67.7,4.5,67.7z M17.3,11.8
		c0,0.3,0,0.6,0,0.9c0,5.4,0,10.8,0,16.2c0,1.4-0.3,2.6-0.9,3.8c-4.7,9-9.2,18.1-13.9,27.1c-1.2,2.4,0.8,5.7,3.4,5.7
		c11.8,0,23.7,0,35.5,0c1.5,0,2.5-0.8,3.2-2c0.7-1.2,0.9-2.5,0.1-3.8c-5.5-9.4-10.9-18.8-16.4-28.2c-0.2-0.3-0.3-0.6-0.3-0.9
		C28,30,28,29.3,28,28.7c0-3.8,0-7.6,0-11.3c0-1.8,0-3.7,0-5.6c1,0,2,0,3,0c0.4,0,0.8-0.2,1-0.4c0.2-0.2,0.2-0.7,0.1-1
		C32,9.8,31.5,9.7,31,9.7c-5.4,0-10.7,0-16.1,0c-0.3,0-0.6,0-0.9,0c-0.6,0.1-0.9,0.5-0.9,1.1c0,0.6,0.3,1,0.9,1c0.3,0,0.5,0,0.8,0
		C15.6,11.8,16.4,11.8,17.3,11.8z"/>
	<path class="st0" d="M18.3,4.3c-1.2,0-2.1-1-2.1-2.1c0-1.2,1-2.1,2.1-2.1c1.2,0,2.2,1,2.2,2.2C20.4,3.4,19.5,4.3,18.3,4.3z"/>
	<path class="st0" d="M26.8,6.4c-1.2,0-2.1-1-2.1-2.2c0-1.2,1-2.1,2.2-2.1c1.2,0,2.2,1.1,2.1,2.2C29,5.6,28,6.5,26.8,6.4z"/>
	<path class="st0" d="M30.9,39.9c1.5,2.6,3,5.2,4.4,7.7c2.4,4.3,4.8,8.5,7.3,12.7c0.8,1.4-0.2,3.2-1.9,3.2
		c-11.4-0.1-22.8-0.1-34.2,0c-1.6,0-2.6-1.7-1.9-3.1c3.5-6.8,6.9-13.5,10.3-20.3c1-2,3.8-2.8,5.8-1.7c0.8,0.4,1.5,1.1,2.2,1.7
		c0.9,0.7,1.8,1.4,2.9,1.6c1.7,0.4,3.2-0.2,4.4-1.3C30.5,40.2,30.7,40.1,30.9,39.9z"/>
</g>
</svg>
