<?xml version="1.0" encoding="utf-8"?>
<!-- Generator: Adobe Illustrator 21.1.0, SVG Export Plug-In . SVG Version: 6.00 Build 0)  -->
<svg version="1.1" id="Layer_1" xmlns="http://www.w3.org/2000/svg" xmlns:xlink="http://www.w3.org/1999/xlink" x="0px" y="0px"
	 viewBox="0 0 56.5 55.4" style="enable-background:new 0 0 56.5 55.4;" xml:space="preserve">
<style type="text/css">
	.st0{fill:#493728;}
	.st1{fill:none;}
</style>
<path class="st0" d="M55.8,12.1c0.5-0.8,0.8-1.4,0.6-2c-0.2-0.6-0.7-1-1.6-1.4L37.5,0.5c-0.2-0.1-0.3-0.2-0.5-0.3L36.6,0h-1.5
	L35,0.2c-0.3,0.4-0.7,0.9-1,1.3c-0.8,1-1.6,2-2.4,2.9c-0.7,0.7-1.6,1.2-2.3,1.4c-4.5,0.9-7.7,3.4-9.3,7.6c-0.3,0.8-0.6,1-1.4,1
	c-2.9-0.1-5.2,1.1-7,3.7c-0.1,0.1-0.2,0.2-0.2,0.4c-2.5,4.7-5.8,8-9.9,10.1c-0.4,0.2-0.6,0.5-0.9,0.7c-0.1,0.1-0.2,0.2-0.3,0.3
	L0,29.8L0,31l0.8,3.7c0.6,2.7,1.2,5.3,1.8,8l0.4,1.7c0.4,1.9,0.9,3.9,1.3,5.8c0.3,1.4,1.1,2,2.5,1.9c1.2,0,2.6,0,4.3,0
	c0.1,0,0.3,0.1,0.3,0.1c1.1,1.8,2.4,2.8,3.8,3.1c1.3,0.2,2.7-0.2,4.2-1.2c1.2,0.9,2.2,1.3,3.3,1.3s2.1-0.4,3.3-1.3
	c2.6,1.7,4.3,1.7,6.7,0c1.5,1.1,3,1.5,4.4,1.2c1.4-0.3,2.7-1.4,3.6-3.2l1,0c1.1,0,2.1,0,3.2,0c0,0,0.1,0,0.1,0c2.5,0,4.3-1,5.3-3.1
	c1-2,0.8-4-0.5-5.9c2.6-2.4,2.9-4.7,1.1-7.7c2.6-2.6,2.9-4.7,1.1-7.7c1.5-1.2,2.3-2.8,2.2-4.6c-0.1-1.8-0.9-3.3-2.5-4.5l1.1-1.7
	C53.8,15.3,54.8,13.7,55.8,12.1z M27.8,49.8L27.8,49.8l0-1.1c0-0.3,0-0.6,0-0.8c0.1-0.8,0.7-1.4,1.5-1.4c0.8,0,1.6,0.6,1.6,1.4
	c0.1,0.7,0.1,1.6,0,2.5c0,0.8-0.7,1.5-1.5,1.5c-0.8,0-1.6-0.6-1.6-1.5C27.8,50.2,27.8,50,27.8,49.8z M21.1,49.6l0-0.3l0-0.4
	c0-0.2,0-0.5,0-0.7c0-1,0.7-1.7,1.6-1.7c0,0,0,0,0,0c0.9,0,1.5,0.7,1.6,1.6c0,0.7,0,1.4,0,2.2c0,1-0.7,1.7-1.6,1.7c0,0,0,0,0,0
	c-0.9,0-1.5-0.7-1.6-1.7C21.1,50,21.1,49.8,21.1,49.6z M14.5,48.8c0-0.3,0-0.6,0-0.8c0.1-0.8,0.7-1.5,1.6-1.4c0.8,0,1.5,0.6,1.5,1.4
	c0.1,0.8,0,1.6,0,2.4c0,1-0.7,1.7-1.6,1.6c-0.9,0-1.5-0.7-1.5-1.6c0-0.2,0-0.3,0-0.5h0L14.5,48.8z M49.4,25.3
	c-0.6,0.2-1.3,0.2-1.9,0.2l-0.2,0c-1.6,0-1.9,1-1.9,1.6c0,0.7,0.3,1.7,1.8,1.8c1,0.1,1.8,0.4,2.2,0.9c0.3,0.4,0.4,1,0.3,1.7
	c-0.2,1-0.9,1.7-2,1.7c-0.2,0-0.4,0-0.6,0c-0.4,0-0.9-0.1-1.4,0.1c-0.6,0.2-1.3,0.9-1.4,1.6c-0.1,0.6,0.6,1.1,1.2,1.6
	c0.3,0.2,0.7,0.2,0.9,0.2c0.1,0,0.2,0,0.2,0c1,0.1,1.8,0.9,2,1.9c0.1,1.1-0.5,2.1-1.5,2.3c-0.7,0.1-1.4,0.2-2.1,0.2h-0.2
	c-1.7,0-2,1-2,1.6c0,0.6,0.2,1,0.4,1.2c0.4,0.4,0.8,0.5,1.5,0.5c0.3,0,0.7,0,1,0.1c1.2,0.2,2,1.2,1.9,2.3c-0.1,1.2-1,1.9-2.2,2
	c-1.1,0-2.2,0-3.3,0l-1,0c0-2.5-1.1-4.2-3.1-5.1c-1.7-0.8-3.4-0.5-5.2,0.9c-2.7-1.7-4.3-1.7-6.7,0c-2.4-1.8-4.3-1.8-6.6,0
	c-1.8-1.4-3.7-1.7-5.6-0.7c-1.8,0.9-2.7,2.5-2.8,4.9l-0.4,0c-1,0-2.1,0-3,0c-0.1,0-0.2-0.2-0.2-0.2C6,42.2,4.8,36.6,3.7,31.6
	c0-0.1,0.1-0.3,0.2-0.4C4,31.1,4,31.1,4,31c4.8-2.3,7.7-6.5,10.2-10.6c0.9-1.6,2.2-2.4,4-2.6c-0.2,0.5-0.4,1-0.6,1.4
	c-0.8,1.9-1.5,3.7-2.1,5.6c-0.4,1.3-0.5,2.7-0.3,3.9c0.5,2.6,2.7,4.4,5.6,4.6c2.5,0.2,4.9-1.3,6-3.8c0.8-1.8,1.5-3.6,2.2-5.4l1-2.5
	c0.1-0.1,0.1-0.3,0.2-0.4l4.6,0c4.7,0,9.5,0,14.2,0c0.9,0,1.8,0.8,1.9,1.8C51,24.1,50.4,25,49.4,25.3z M47.7,17.7
	c-6.4,0-12.1,0-17.9,0c-1.5,0-2.3,0.5-2.8,1.9c-1,2.6-2.1,5.3-3.1,7.8l-0.2,0.6c-0.7,1.7-2.1,2.4-3.6,1.8c-0.7-0.3-1.2-0.7-1.5-1.4
	c-0.3-0.7-0.3-1.6,0-2.4c1.5-3.9,3-7.7,4.6-11.6c1.2-2.8,3.2-4.5,6.1-5c2.3-0.4,4-1.4,5.3-3.2c0.4-0.6,0.9-1.2,1.4-1.8
	c0.1-0.2,0.3-0.3,0.4-0.5l15.8,7.4l-0.6,1c-1.1,1.8-2.2,3.5-3.3,5.2C48.3,17.6,48,17.7,47.7,17.7z M37.6,49.7c0,0.3,0,0.5,0,0.8
	C37.5,51.3,36.8,52,36,52c-0.8,0-1.5-0.6-1.6-1.4c-0.1-0.8-0.1-1.6,0-2.5c0-0.8,0.7-1.5,1.6-1.5c0,0,0,0,0,0c0.8,0,1.5,0.7,1.6,1.6
	c0,0.3,0,0.5,0,0.8l0,0.4L37.6,49.7z M49.2,43.3L49.2,43.3L49.2,43.3L49.2,43.3L49.2,43.3z"/>
</svg>
