<?xml version="1.0" encoding="utf-8"?>
<!-- Generator: Adobe Illustrator 21.1.0, SVG Export Plug-In . SVG Version: 6.00 Build 0)  -->
<svg version="1.1" xmlns="http://www.w3.org/2000/svg" xmlns:xlink="http://www.w3.org/1999/xlink" x="0px" y="0px"
	 viewBox="0 0 218.3 95.5" style="enable-background:new 0 0 218.3 95.5;" xml:space="preserve">
<style type="text/css">
	.st0{fill:#F8F4F1;}
	.st1{opacity:0.13;}
	.st2{fill:none;stroke:#8C8934;stroke-width:0.3259;stroke-miterlimit:10;}
	.st3{fill:#493728;}
	.st4{fill:#493728;stroke:#493728;stroke-width:1.1433;stroke-miterlimit:10;}
	.st5{fill:none;stroke:#493728;stroke-width:1.1433;stroke-miterlimit:10;}
	.st6{fill:none;}
	.st7{fill:#FFF200;}
	.st8{fill:#F8F4F1;stroke:#493728;stroke-width:1.1433;stroke-miterlimit:10;}
	.st9{fill:#F5C400;stroke:#F5C400;stroke-width:2.8346;stroke-miterlimit:10;}
	.st10{opacity:0.3;fill:#8D6A29;}
	.st11{fill:#8C8934;}
	.st12{fill:#F5C400;}
	.st13{fill:#8D6A29;}
	.st14{opacity:0.8;fill:#FFFFFF;}
	.st15{opacity:0.6;fill:none;stroke:#FFFFFF;stroke-width:0.9175;stroke-miterlimit:10;}
	.st16{fill:#FFFFFF;}
	.st17{fill:none;stroke:#F5C400;stroke-width:1.7008;stroke-miterlimit:10;}
	.st18{opacity:0.65;fill:#121323;}
	.st19{fill:#23170E;}
	.st20{fill:none;stroke:#FFFFFF;stroke-width:0.9041;stroke-miterlimit:10;}
	.st21{fill:none;stroke:#FFFFFF;stroke-width:0.9384;stroke-miterlimit:10;}
	.st22{opacity:0.5;}
	.st23{fill:none;stroke:#FFFFFF;stroke-width:1.1339;stroke-miterlimit:10;}
	.st24{fill:none;stroke:#F5C400;stroke-width:1.1164;stroke-miterlimit:10;}
	.st25{fill:none;stroke:#F5C400;stroke-miterlimit:10;}
	.st26{fill:#493728;stroke:#493728;stroke-width:0.8184;stroke-miterlimit:10;}
	.st27{fill:none;stroke:#F5C400;stroke-width:1.4173;stroke-miterlimit:10;}
	.st28{fill:#493728;stroke:#F8F4F1;stroke-width:0.4008;stroke-miterlimit:2;}
	.st29{fill:#383838;}
</style>
<g id="foni">
</g>
<g id="Layer_2">
	<path class="st3" d="M133.8,53.1c1.5,0.7,2.8,1.2,4.1,2c1.7,1,2.3,2.6,1.2,4.4c-2.5,4.3-4.8,8.8-7.6,12.9c-2.9,4.4-6,4.3-9.2,0.3
		c-1.7-2.2-3.1-5.5-5.3-6.2c-2.2-0.7-5.2,1.2-7.9,1.9c-1.9,0.5-3.8,0.9-5.7,1.3c0,0.3,0,0.5,0.1,0.6c3.6,5.1,3.3,4.7-0.6,9.4
		c-3.5,4.1-7.4,7.9-11.3,11.6c-1.9,1.8-4.2,2.8-7,1.6c-0.5-0.2-1.3,0.2-1.9,0.6c-4.8,3.4-7.4,2.9-9.9-2.4c-2.3-4.8-4.2-9.8-6.2-14.7
		c-0.6-1.4-1.3-2.1-2.9-2.4C42.8,70.4,23,63.8,4.3,53.6c-1.4-0.8-2.6-1.8-4.3-3c1.2-0.5,1.9-0.7,2.5-0.9c-2.3-1.4-2.4-2-0.4-3.7
		c6.8-5.8,13.5-11.7,20.5-17.2C32.9,20.6,45.1,17.4,58,16.5c1.9-0.1,2.7-0.7,3.2-2.5c0.8-2.8,1.7-5.6,3-8.3C66,1.7,69.4,0,73.9,0
		c15.8-0.2,30.7,4.5,45.4,9.5c1.5,0.5,3.1,0.9,4.7,1.5c2.7,0.9,3.2,2.5,0.8,4.1c-2.7,1.8-5.9,3-9,4.3c-1.9,0.8-3.9,1.1-6.6,1.8
		c5,1.3,9.3,2.6,13.7,3.7c7.8,2,15.7,3.9,23.6,5.8c6.9,1.7,13.5,1.4,20.2-1.8c13.7-6.5,28.1-11.7,42.8-15.5c1.7-0.4,3.6-0.6,5.3-0.6
		c2.9,0.1,4.2,1.8,3,4.4c-0.9,2.1-2.3,4.2-4,5.8c-3.9,3.5-8,6.7-12.1,10c-0.5,0.4-1.1,0.8-1.5,1.3c-3.8,4.2-3.5,16.3,0.1,20.7
		c1.9,2.3,3.6,4.9,4.6,7.7c1.3,3.4-0.1,5-3.6,5.6c-5.6,1-10.2-1.1-14.5-4.6c-5.3-4.3-11-8-17.4-10.4c-11.3-4.4-22.8-5-34.3-0.7
		C134.9,52.5,134.4,52.8,133.8,53.1z"/>
</g>
<g id="Grid">
</g>
<g id="ფონი">
</g>
<g id="masala">
</g>
<g id="Layer_5">
</g>
<g id="Layer_7">
</g>
</svg>
